<svg xmlns="http://www.w3.org/2000/svg" version="1.1" xmlns:xlink="http://www.w3.org/1999/xlink" width="2000" height="515" viewBox="0 0 2000 515"><g transform="matrix(1,0,0,1,-1.2117812741375928,-0.9148584372786672)"><svg viewBox="0 0 396 102" data-background-color="#ffffff" preserveAspectRatio="xMidYMid meet" height="515" width="2000" xmlns="http://www.w3.org/2000/svg" xmlns:xlink="http://www.w3.org/1999/xlink"><g id="tight-bounds" transform="matrix(1,0,0,1,0.23993269227923975,0.18119526330568192)"><svg viewBox="0 0 395.52 101.63747485794708" height="101.63747485794708" width="395.52"><g><svg viewBox="0 0 571.5328377061967 146.86780547849594" height="101.63747485794708" width="395.52"><g transform="matrix(1,0,0,1,0,42.56986718745451)"><svg viewBox="0 0 395.52 61.72807110358691" height="61.72807110358691" width="395.52"><g id="textblocktransform"><svg viewBox="0 0 395.52 61.72807110358691" height="61.72807110358691" width="395.52" id="textblock"><g><svg viewBox="0 0 395.52 61.72807110358691" height="61.72807110358691" width="395.52"><g transform="matrix(1,0,0,1,0,0)"><svg width="395.52" viewBox="4 -36.01 230.72 36.01" height="61.72807110358691" data-palette-color="#336a86"><path d="M26.49-14.99L9.5-14.99Q8.47-14.99 7.56-15.39 6.64-15.8 5.96-16.47 5.27-17.14 4.88-18.05 4.49-18.97 4.49-20L4.49-20 4.49-30Q4.49-31.03 4.88-31.95 5.27-32.86 5.96-33.53 6.64-34.2 7.56-34.61 8.47-35.01 9.5-35.01L9.5-35.01 26.49-35.01Q27.51-35.01 28.43-34.61 29.35-34.2 30.03-33.53 30.71-32.86 31.1-31.95 31.49-31.03 31.49-30L31.49-30 31.49-25.49 26.49-25.49 26.49-30 9.5-30 9.5-20 26.49-20Q27.51-20 28.43-19.6 29.35-19.21 30.03-18.53 30.71-17.85 31.1-16.93 31.49-16.02 31.49-14.99L31.49-14.99 31.49-5Q31.49-3.98 31.1-3.06 30.71-2.15 30.03-1.46 29.35-0.78 28.43-0.39 27.51 0 26.49 0L26.49 0 9.01 0Q7.98 0 7.07-0.39 6.15-0.78 5.47-1.46 4.79-2.15 4.39-3.06 4-3.98 4-5L4-5 4-9.5 9.01-9.5 9.01-5 26.49-5 26.49-14.99ZM62.01-21.19L62.01-10.55 44.8-10.55 44.8-4.81 62.01-4.81 62.01 0 44.8 0Q43.82 0 42.94-0.38 42.06-0.76 41.42-1.4 40.77-2.05 40.39-2.93 40.01-3.81 40.01-4.81L40.01-4.81 40.01-21.19Q40.01-22.19 40.39-23.07 40.77-23.95 41.42-24.6 42.06-25.24 42.94-25.62 43.82-26 44.8-26L44.8-26 57.2-26Q58.2-26 59.08-25.62 59.96-25.24 60.61-24.6 61.25-23.95 61.63-23.07 62.01-22.19 62.01-21.19L62.01-21.19ZM57.2-21.19L44.8-21.19 44.8-15.36 57.2-15.36 57.2-21.19ZM101.61-21.19L90.62-21.19 90.62 0 85.81 0 85.81-21.19 74.8-21.19 74.8 0 70.01 0 70.01-26 74.8-26 74.8-21.41Q74.85-22.36 75.24-23.21 75.63-24.05 76.28-24.67 76.92-25.29 77.78-25.65 78.63-26 79.61-26L79.61-26 85.81-26Q86.76-26 87.62-25.65 88.47-25.29 89.13-24.67 89.79-24.05 90.19-23.21 90.6-22.36 90.62-21.41L90.62-21.41Q90.67-22.36 91.05-23.21 91.43-24.05 92.07-24.67 92.72-25.29 93.57-25.65 94.43-26 95.41-26L95.41-26 101.61-26Q102.61-26 103.49-25.62 104.37-25.24 105.01-24.6 105.66-23.95 106.04-23.07 106.42-22.19 106.42-21.19L106.42-21.19 106.42 0 101.61 0 101.61-21.19ZM114.67-26L119.47-26 119.47 0 114.67 0 114.67-26ZM114.42-31.01L114.42-36.01 119.72-36.01 119.72-31.01 114.42-31.01ZM150.72-21.19L150.72 0 145.91 0 145.91-21.19 132.51-21.19 132.51 0 127.72 0 127.72-26 132.51-26 132.51-21.41Q132.56-22.36 132.95-23.21 133.34-24.05 133.99-24.67 134.63-25.29 135.49-25.65 136.34-26 137.32-26L137.32-26 145.91-26Q146.91-26 147.79-25.62 148.67-25.24 149.32-24.6 149.97-23.95 150.34-23.07 150.72-22.19 150.72-21.19L150.72-21.19ZM158.73-4.81L158.73-11.35Q158.73-12.35 159.11-13.22 159.48-14.09 160.13-14.75 160.78-15.41 161.66-15.78 162.54-16.16 163.51-16.16L163.51-16.16 175.92-16.16 175.92-21.19 160.22-21.19 160.22-26 175.92-26Q176.92-26 177.8-25.62 178.67-25.24 179.32-24.6 179.97-23.95 180.35-23.07 180.72-22.19 180.72-21.19L180.72-21.19 180.72 0 175.92 0 175.92-4.39Q175.84-3.49 175.43-2.69 175.01-1.88 174.36-1.28 173.72-0.68 172.89-0.34 172.06 0 171.13 0L171.13 0 163.51 0Q162.54 0 161.66-0.38 160.78-0.76 160.13-1.4 159.48-2.05 159.11-2.93 158.73-3.81 158.73-4.81L158.73-4.81ZM163.51-11.35L163.51-4.81 175.92-4.81 175.92-11.35 163.51-11.35ZM203.43-21.19L193.52-21.19 193.52 0 188.73 0 188.73-26 193.52-26 193.52-21.41Q193.56-22.36 193.95-23.21 194.35-24.05 194.99-24.67 195.64-25.29 196.49-25.65 197.35-26 198.32-26L198.32-26 203.43-26Q204.43-26 205.3-25.62 206.16-25.24 206.82-24.6 207.48-23.95 207.86-23.07 208.24-22.19 208.24-21.19L208.24-21.19 208.24-16.8 203.43-16.8 203.43-21.19ZM213.7-4.81L229.91-4.81 229.91-10.84 218.51-10.84Q217.51-10.84 216.63-11.22 215.75-11.6 215.11-12.24 214.46-12.89 214.08-13.77 213.7-14.65 213.7-15.65L213.7-15.65 213.7-21.19Q213.7-22.19 214.08-23.07 214.46-23.95 215.11-24.6 215.75-25.24 216.63-25.62 217.51-26 218.51-26L218.51-26 233.72-26 233.72-21.19 218.51-21.19 218.51-15.65 229.91-15.65Q230.92-15.65 231.78-15.27 232.65-14.89 233.31-14.25 233.97-13.6 234.35-12.72 234.72-11.84 234.72-10.84L234.72-10.84 234.72-4.81Q234.72-3.81 234.35-2.93 233.97-2.05 233.31-1.4 232.65-0.76 231.78-0.38 230.92 0 229.91 0L229.91 0 213.7 0 213.7-4.81Z" opacity="1" transform="matrix(1,0,0,1,0,0)" fill="#ffffff" class="wordmark-text-0" data-fill-palette-color="primary" id="text-0"></path></svg></g></svg></g></svg></g></svg></g><g transform="matrix(1,0,0,1,424.66503222770075,0)"><svg viewBox="0 0 146.86780547849594 146.86780547849594" height="146.86780547849594" width="146.86780547849594"><g><svg></svg></g><g id="icon-0"><svg viewBox="0 0 146.86780547849594 146.86780547849594" height="146.86780547849594" width="146.86780547849594"><g><path d="M0 73.434c0-40.556 32.877-73.434 73.434-73.434 40.556 0 73.434 32.877 73.434 73.434 0 40.556-32.877 73.434-73.434 73.434-40.556 0-73.434-32.877-73.434-73.434zM73.434 141.301c37.482 0 67.867-30.385 67.867-67.867 0-37.482-30.385-67.867-67.867-67.867-37.482 0-67.867 30.385-67.867 67.867 0 37.482 30.385 67.867 67.867 67.867z" data-fill-palette-color="tertiary" fill="#ffffff" stroke="transparent"></path></g><g transform="matrix(1,0,0,1,34.086497888751424,34.086497888751424)"><svg viewBox="0 0 78.69480970099309 78.69480970099309" height="78.69480970099309" width="78.69480970099309"><g><svg xmlns="http://www.w3.org/2000/svg" xmlns:xlink="http://www.w3.org/1999/xlink" version="1.1" x="0" y="0" viewBox="0 0 64 64" style="enable-background:new 0 0 64 64;" xml:space="preserve" height="78.69480970099309" width="78.69480970099309" class="icon-dxe-0" data-fill-palette-color="accent" id="dxe-0"><path d="M59 15H57V13.979A5 5 0 0 0 59 10V9H60V7H58A1 1 0 0 0 57 8V10C57 11.068 56.438 12.033 55.497 12.581A1 1 0 0 0 55 13.445V16A1 1 0 0 0 56 17H56.573L54 24.074 51.427 17H52A1 1 0 0 0 53 16V13.445C53 13.089 52.81 12.76 52.503 12.581 51.561 12.033 51 11.068 51 10V6.188A5.96 5.96 0 0 0 54 7H57A1 1 0 0 0 58 6C58 2.691 55.309 0 52 0H49A1 1 0 0 0 48 1C48 2.223 48.369 3.36 49 4.31V10C49 11.564 49.754 13.04 51 13.979V15H31V2H33V0H0V2H2V24H0V26H33V24H31V17H33V20A1 1 0 0 0 34 21H45V33C41.691 33 39 35.691 39 39S41.691 45 45 45V43C42.794 43 41 41.206 41 39S42.794 35 45 35H48V57A1 1 0 0 0 49 58H56C58.757 58 61 55.757 61 53V35H63A1 1 0 0 0 64 34V20C64 17.243 61.757 15 59 15M29 24H4V2H29zM52 2A4.006 4.006 0 0 1 55.873 5H54A4.006 4.006 0 0 1 50.127 2zM59 53C59 54.654 57.654 56 56 56H55V40H53V56H50V35H59zM62 33H47V20A1 1 0 0 0 46 19H35V17H49.3L53.061 27.342A0.998 0.998 0 0 0 54.939 27.342L58.7 17H59C60.654 17 62 18.346 62 20z" fill="#ffffff" data-fill-palette-color="accent"></path><path d="M12 44C8.691 44 6 46.691 6 50S8.691 56 12 56 18 53.309 18 50 15.309 44 12 44M12 54C9.794 54 8 52.206 8 50S9.794 46 12 46 16 47.794 16 50 14.206 54 12 54" fill="#ffffff" data-fill-palette-color="accent"></path><path d="M34 56C37.309 56 40 53.309 40 50S37.309 44 34 44 28 46.691 28 50 30.691 56 34 56M34 46C36.206 46 38 47.794 38 50S36.206 54 34 54 30 52.206 30 50 31.794 46 34 46" fill="#ffffff" data-fill-palette-color="accent"></path><path d="M23 33C19.691 33 17 35.691 17 39S19.691 45 23 45 29 42.309 29 39 26.309 33 23 33M23 43C20.794 43 19 41.206 19 39S20.794 35 23 35 27 36.794 27 39 25.206 43 23 43" fill="#ffffff" data-fill-palette-color="accent"></path><path d="M6 39C6 35.691 3.309 33 0 33V35C2.206 35 4 36.794 4 39S2.206 43 0 43V45C3.309 45 6 42.309 6 39" fill="#ffffff" data-fill-palette-color="accent"></path><path d="M41.707 58.293A1 1 0 0 0 41 58H27A1 1 0 0 0 26.293 58.293L23 61.586 19.707 58.293A1 1 0 0 0 19 58H5A1 1 0 0 0 4.293 58.293L0.293 62.293A1 1 0 0 0 0 63V64H2V63.414L5.414 60H18.586L22 63.414V64H24V63.414L27.414 60H40.586L44 63.414V64H46V63C46 62.735 45.894 62.48 45.707 62.293z" fill="#ffffff" data-fill-palette-color="accent"></path><path d="M14 4H7A1 1 0 0 0 6 5V13A1 1 0 0 0 7 14H14A1 1 0 0 0 15 13V5A1 1 0 0 0 14 4M13 12H8V6H13z" fill="#ffffff" data-fill-palette-color="accent"></path><rect x="17" y="4" width="10" height="2" fill="#ffffff" data-fill-palette-color="accent"></rect><rect x="17" y="8" width="4" height="2" fill="#ffffff" data-fill-palette-color="accent"></rect><rect x="23" y="8" width="4" height="2" fill="#ffffff" data-fill-palette-color="accent"></rect><rect x="17" y="12" width="2" height="2" fill="#ffffff" data-fill-palette-color="accent"></rect><rect x="6" y="16" width="5" height="2" fill="#ffffff" data-fill-palette-color="accent"></rect><rect x="13" y="16" width="2" height="2" fill="#ffffff" data-fill-palette-color="accent"></rect><rect x="17" y="16" width="2" height="2" fill="#ffffff" data-fill-palette-color="accent"></rect><rect x="21" y="16" width="2" height="2" fill="#ffffff" data-fill-palette-color="accent"></rect><rect x="25" y="16" width="2" height="2" fill="#ffffff" data-fill-palette-color="accent"></rect><rect x="6" y="20" width="2" height="2" fill="#ffffff" data-fill-palette-color="accent"></rect><rect x="10" y="20" width="5" height="2" fill="#ffffff" data-fill-palette-color="accent"></rect><rect x="17" y="20" width="2" height="2" fill="#ffffff" data-fill-palette-color="accent"></rect><rect x="21" y="20" width="2" height="2" fill="#ffffff" data-fill-palette-color="accent"></rect><rect x="25" y="20" width="2" height="2" fill="#ffffff" data-fill-palette-color="accent"></rect><rect x="21" y="12" width="6" height="2" fill="#ffffff" data-fill-palette-color="accent"></rect></svg></g></svg></g></svg></g></svg></g></svg></g><defs></defs></svg><rect width="395.52" height="101.63747485794708" fill="none" stroke="none" visibility="hidden"></rect></g></svg></g></svg>